{"title":"Death.Sentence.[2007].UNRATED.DvdRip.XviD-Kna","uid":6703243,"size":2142293720,"categoryP":"video","categoryS":"movies","magnet":"?xt=urn:btih:1234076f3a212da84ccf13906432937348a7b085&amp;dn=Death.Sentence.%5B2007%5D.UNRATED.DvdRip.XviD-Kna&amp;tr=udp%3A%2F%2Ftracker.openbittorrent.com%3A80&amp;tr=udp%3A%2F%2Fopen.demonii.com%3A1337&amp;tr=udp%3A%2F%2Ftracker.coppersurfer.tk%3A6969&amp;tr=udp%3A%2F%2Fexodus.desync.com%3A6969","seeders":0,"leechers":1,"uploader":"Jon.Pson","files":-1,"time":1317060362,"description":"Nick Hume is a mild-mannered executive with a perfect life, until one gruesome night he witnesses something that changes him forever. Transformed by grief, Hume eventually comes to the disturbing conclusion that no length is too great when protecting his family.\n\n\n\nGeneral\nComplete name                    : Death.Sentence.[2007].UNRATED.DvdRip.XviD-KnÃƒÂ£\\\\Death.Sentence.[2007].UNRATED.DvdRip.XviD-KnÃƒÂ£.avi\nFormat                           : AVI\nFormat/Info                      : Audio Video Interleave\nFormat profile                   : OpenDML\nFile size                        : 2.00 GiB\nDuration                         : 1h 50mn\nOverall bit rate                 : 2 583 Kbps\nWriting application              : VirtualDubMod 1.5.4.1 (build 2178/release)\nWriting library                  : VirtualDub build 32842/release\n\nVideo\nID                               : 0\nFormat                           : MPEG-4 Visual\nFormat profile                   : Advanced Simple@L5\nFormat settings, BVOP            : No\nFormat settings, QPel            : No\nFormat settings, GMC             : No warppoints\nFormat settings, Matrix          : Custom\nCodec ID                         : XVID\nCodec ID/Hint                    : XviD\nDuration                         : 1h 50mn\nBit rate                         : 2 125 Kbps\nWidth                            : 720 pixels\nHeight                           : 304 pixels\nDisplay aspect ratio             : 2.35:1\nFrame rate                       : 23.976 fps\nColor space                      : YUV\nChroma subsampling               : 4:2:0\nBit depth                        : 8 bits\nScan type                        : Progressive\nCompression mode                 : Lossy\nBits/(Pixel*Frame)               : 0.405\nStream size                      : 1.64 GiB (82%)\nWriting library                  : XviD 1.2.1 (UTC 2008-12-04)\n\nAudio\nID                               : 1\nFormat                           : AC-3\nFormat/Info                      : Audio Coding 3\nMode extension                   : CM (complete main)\nCodec ID                         : 2000\nDuration                         : 1h 49mn\nBit rate mode                    : Constant\nBit rate                         : 448 Kbps\nChannel(s)                       : 6 channels\nChannel positions                : Front: L C R, Side: L R, LFE\nSampling rate                    : 48.0 KHz\nBit depth                        : 16 bits\nCompression mode                 : Lossy\nDelay relative to video          : 23ms\nStream size                      : 352 MiB (17%)\nAlignment                        : Split accross interleaves\nInterleave, duration             : 42 ms (1.01 video frame)\nInterleave, preload duration     : 500 ms\n\n","torrent":{"xt":"urn:btih:1234076f3a212da84ccf13906432937348a7b085","amp;dn":"Death.Sentence.%5B2007%5D.UNRATED.DvdRip.XviD-Kna","amp;tr":["udp%3A%2F%2Ftracker.openbittorrent.com%3A80","udp%3A%2F%2Fopen.demonii.com%3A1337","udp%3A%2F%2Ftracker.coppersurfer.tk%3A6969","udp%3A%2F%2Fexodus.desync.com%3A6969"],"infoHash":"1234076f3a212da84ccf13906432937348a7b085","infoHashBuffer":{"type":"Buffer","data":[18,52,7,111,58,33,45,168,76,207,19,144,100,50,147,115,72,167,176,133]},"announce":[],"urlList":[]}}